<?xml version="1.0"?>
<svg xmlns="http://www.w3.org/2000/svg" id="Outline" viewBox="0 0 512 512" width="512" height="512"><path d="M256,56C141.309,56,48,149.309,48,264a205.978,205.978,0,0,0,21.169,91.524l14.363-7.048a191.929,191.929,0,0,1,22.277-203.942L120,170.073V192h16V168a8.009,8.009,0,0,0-1.007-3.886L116.982,131.7A193.142,193.142,0,0,1,167.43,93.689l-7.24,32.576a8,8,0,0,0,4.839,9.163L200,149.416V176a8,8,0,0,0,5.47,7.59l48,16a8,8,0,0,0,9.39-3.474l22.477-37.463,15.723-5.24,17.574,23.432-13.209,26.416-23.082,23.082a8,8,0,0,0-1.933,8.187l8,24a8,8,0,0,0,6.275,5.362l48,8A8.012,8.012,0,0,0,348.8,270.4l23.121-17.34,12.489,37.47a8,8,0,0,0,5.65,5.231l32,8a7.991,7.991,0,0,0,4.137-.069l18.74-5.352a190.487,190.487,0,0,1-31.416,75.467q-1.671,2.392-3.412,4.721l-2.158-19.412a8,8,0,0,0-3.513-5.772l-24-16a8,8,0,0,0-8.876,0L349.578,352H312a8,8,0,0,0-6.656,3.562L290.3,378.129l-6.539,4.087,8.48,13.568,8-5a7.985,7.985,0,0,0,2.416-2.346L316.281,368H352a8.005,8.005,0,0,0,4.438-1.344L376,353.615l16.461,10.974,3.438,30.938a191.36,191.36,0,0,1-70.78,47.659l5.762,14.925A208.072,208.072,0,0,0,464,264C464,149.309,370.691,56,256,56ZM447.248,281.04l-23.386,6.68L398.2,281.3,383.59,237.47a8,8,0,0,0-12.39-3.87l-29.262,21.946L302.066,248.9l-4.913-14.739,20.5-20.5a7.986,7.986,0,0,0,1.5-2.079l16-32a8,8,0,0,0-.755-8.378l-24-32a8,8,0,0,0-8.93-2.79l-24,8a8,8,0,0,0-4.33,3.474l-20.7,34.5L216,170.234V144a8,8,0,0,0-5.029-7.428L177.285,123.1l8.392-37.762A191.014,191.014,0,0,1,256,72c105.869,0,192,86.131,192,192Q448,272.577,447.248,281.04Z"/><path d="M304,440H288V424a24.028,24.028,0,0,0-24-24H152a24.028,24.028,0,0,0-24,24v16H112a8,8,0,0,0-8,8v40a8,8,0,0,0,8,8H304a8,8,0,0,0,8-8V448A8,8,0,0,0,304,440ZM144,424a8.009,8.009,0,0,1,8-8H264a8.009,8.009,0,0,1,8,8v16H144Zm152,56H120V456H296Z"/><path d="M201.621,340.935a24.971,24.971,0,0,0,40.036,28.722l48-48a24.967,24.967,0,0,0-28.721-40.036l-62.557-62.556a24.967,24.967,0,0,0-40.036-28.722l-48,48a24.97,24.97,0,0,0,28.722,40.036L152.686,292,30.343,414.343a24.971,24.971,0,0,0,35.314,35.314L188,327.314ZM188,231.314,248.686,292,212,328.686,151.314,268Zm90.343,66.343a8.98,8.98,0,0,1,0,12.686l-48,48a8.97,8.97,0,0,1-12.686-12.686l48-48a8.978,8.978,0,0,1,12.686,0ZM121.657,262.343a8.98,8.98,0,0,1,0-12.686l48-48a8.97,8.97,0,0,1,12.686,12.686l-48,48A8.98,8.98,0,0,1,121.657,262.343Zm-67.314,176a8.97,8.97,0,0,1-12.686-12.686L144,323.314,156.686,336ZM168,324.686,155.314,312,164,303.314,176.686,316Z"/><rect x="336" y="208" width="16" height="16"/><rect x="416" y="240" width="16" height="16"/><rect x="232" y="104" width="16" height="16"/><rect x="344" y="384" width="16" height="16"/><rect x="88" y="200" width="16" height="16"/><path d="M466.329,341.241l15.018,5.518c2-5.428,3.812-11,5.4-16.557l-15.383-4.4C469.885,330.982,468.188,336.179,466.329,341.241Z"/><path d="M425.705,94.3A238.427,238.427,0,0,0,256,24a243.1,243.1,0,0,0-33.093,2.264l2.186,15.849A227.1,227.1,0,0,1,256,40,224,224,0,0,1,480,264a225.583,225.583,0,0,1-4.8,46.354l15.658,3.292A241.607,241.607,0,0,0,496,264,238.427,238.427,0,0,0,425.705,94.3Z"/><path d="M32,264A223,223,0,0,1,93.792,109.519L82.208,98.481A238.941,238.941,0,0,0,16,264a242.138,242.138,0,0,0,3.554,41.37l15.763-2.74A226.214,226.214,0,0,1,32,264Z"/></svg>
