<?xml version="1.0" encoding="iso-8859-1"?>
<!-- Generator: Adobe Illustrator 19.0.0, SVG Export Plug-In . SVG Version: 6.00 Build 0)  -->
<svg version="1.1" id="Capa_1" xmlns="http://www.w3.org/2000/svg" xmlns:xlink="http://www.w3.org/1999/xlink" x="0px" y="0px"
	 viewBox="0 0 479.999 479.999" style="enable-background:new 0 0 479.999 479.999;" xml:space="preserve">
<g>
	<g>
		<path d="M102.97,262.359c-1.844-5.929-6.032-10.847-11.592-13.613l-15.592-7.8c-3.376-1.686-4.745-5.789-3.059-9.165
			c1.156-2.314,3.52-3.777,6.107-3.779h2.336c3.77,0.009,6.823,3.062,6.832,6.832v1.168h16v-1.168
			c-0.037-9.94-6.511-18.71-16-21.672v-9.16h-16v9.16c-11.999,3.732-18.7,16.484-14.968,28.483
			c1.844,5.929,6.032,10.847,11.592,13.613l15.592,7.8c3.376,1.686,4.745,5.789,3.059,9.165c-1.156,2.314-3.52,3.777-6.107,3.779
			h-2.336c-3.77-0.009-6.823-3.062-6.832-6.832v-1.168h-16v1.168c0.037,9.94,6.511,18.71,16,21.672v9.16h16v-9.16
			C100.001,287.11,106.702,274.358,102.97,262.359z"/>
	</g>
</g>
<g>
	<g>
		<rect x="112.002" y="244.002" width="16" height="16"/>
	</g>
</g>
<g>
	<g>
		<rect x="32.002" y="244.002" width="16" height="16"/>
	</g>
</g>
<g>
	<g>
		<path d="M422.97,262.359c-1.844-5.929-6.032-10.847-11.592-13.613l-15.592-7.8c-3.376-1.686-4.745-5.789-3.059-9.165
			c1.156-2.314,3.52-3.777,6.107-3.779h2.336c3.77,0.009,6.823,3.062,6.832,6.832v1.168h16v-1.168
			c-0.037-9.94-6.511-18.71-16-21.672v-9.16h-16v9.16c-11.999,3.732-18.7,16.484-14.968,28.483
			c1.844,5.929,6.032,10.847,11.592,13.613l15.592,7.8c3.376,1.686,4.745,5.789,3.059,9.165c-1.156,2.314-3.52,3.777-6.107,3.779
			h-2.336c-3.77-0.009-6.823-3.062-6.832-6.832v-1.168h-16v1.168c0.037,9.94,6.511,18.71,16,21.672v9.16h16v-9.16
			C420.001,287.11,426.702,274.358,422.97,262.359z"/>
	</g>
</g>
<g>
	<g>
		<rect x="432.002" y="244.002" width="16" height="16"/>
	</g>
</g>
<g>
	<g>
		<rect x="352.002" y="244.002" width="16" height="16"/>
	</g>
</g>
<g>
	<g>
		<path d="M474.524,308.412c-0.813-0.271-1.665-0.409-2.522-0.41h-15.104c31.016-31.323,30.768-81.859-0.556-112.876
			c-13.026-12.899-30.096-20.921-48.34-22.716V68.002h16c13.255,0,24-10.745,24-24s-10.745-24-24-24h-152v0.248
			c-12.913-17.673-37.708-21.532-55.382-8.618c-3.3,2.411-6.207,5.318-8.618,8.618v-0.248h-152c-13.255,0-24,10.745-24,24
			s10.745,24,24,24h16V172.41c-43.869,4.319-75.931,43.382-71.612,87.252c1.796,18.244,9.818,35.314,22.716,48.34H8.002
			c-4.418,0.003-7.997,3.588-7.994,8.006c0.001,0.857,0.139,1.709,0.41,2.522l16,48c1.088,3.266,4.142,5.469,7.584,5.472h112
			c3.442-0.003,6.496-2.206,7.584-5.472l16-48c1.396-4.192-0.87-8.722-5.062-10.118c-0.813-0.271-1.665-0.409-2.522-0.41h-15.104
			c31.016-31.323,30.768-81.859-0.556-112.876c-13.026-12.899-30.096-20.921-48.34-22.716V68.002h120v-0.248
			c2.274,3.032,4.968,5.726,8,8l-39.064,312.248h-8.936c-13.255,0-24,10.745-24,24v16h-88c-13.255,0-24,10.745-24,24
			s10.745,24,24,24h368c13.255,0,24-10.745,24-24s-10.745-24-24-24h-88v-16c0-13.255-10.745-24-24-24h-8.936L264.002,75.77
			c3.032-2.274,5.726-4.968,8-8v0.232h120V172.41c-43.869,4.319-75.931,43.382-71.612,87.252
			c1.796,18.244,9.818,35.314,22.716,48.34h-15.104c-4.418,0.003-7.997,3.588-7.994,8.006c0.001,0.857,0.139,1.709,0.41,2.522l16,48
			c1.088,3.266,4.142,5.469,7.584,5.472h112c3.442-0.003,6.496-2.206,7.584-5.472l16-48
			C480.983,314.338,478.716,309.808,474.524,308.412z M140.898,324.002l-10.664,32H29.77l-10.664-32H140.898z M110.89,195.896
			c20.442,11.265,33.131,32.765,33.112,56.106c0.034,23.317-12.664,44.793-33.112,56H49.114
			c-30.957-17.059-42.224-55.984-25.165-86.941C41.008,190.104,79.933,178.837,110.89,195.896z M200.802,52.002h-144.8
			c-4.418,0-8-3.582-8-8s3.582-8,8-8h144.8C199.725,41.281,199.725,46.723,200.802,52.002z M424.002,444.002c4.418,0,8,3.582,8,8
			s-3.582,8-8,8h-368c-4.418,0-8-3.582-8-8s3.582-8,8-8H424.002z M312.002,404.002c4.418,0,8,3.582,8,8v16h-160v-16
			c0-4.418,3.582-8,8-8H312.002z M286.938,388.002h-93.872l38.136-305.048c5.784,1.395,11.816,1.395,17.6,0L286.938,388.002z
			 M240.002,68.002c-13.255,0-24-10.745-24-24s10.745-24,24-24s24,10.745,24,24S253.257,68.002,240.002,68.002z M279.202,52.002
			c1.078-5.279,1.078-10.721,0-16h144.8c4.418,0,8,3.582,8,8s-3.582,8-8,8H279.202z M343.957,221.061
			c17.059-30.957,55.984-42.224,86.941-25.165c30.957,17.059,42.224,55.984,25.165,86.941
			c-5.841,10.599-14.566,19.325-25.165,25.165h-61.776C338.165,290.943,326.898,252.018,343.957,221.061z M450.242,356.002H349.77
			l-10.664-32h121.792L450.242,356.002z"/>
	</g>
</g>
<g>
</g>
<g>
</g>
<g>
</g>
<g>
</g>
<g>
</g>
<g>
</g>
<g>
</g>
<g>
</g>
<g>
</g>
<g>
</g>
<g>
</g>
<g>
</g>
<g>
</g>
<g>
</g>
<g>
</g>
</svg>
