<?xml version="1.0" encoding="iso-8859-1"?>
<!-- Generator: Adobe Illustrator 19.0.0, SVG Export Plug-In . SVG Version: 6.00 Build 0)  -->
<svg version="1.1" id="Capa_1" xmlns="http://www.w3.org/2000/svg" xmlns:xlink="http://www.w3.org/1999/xlink" x="0px" y="0px"
	 viewBox="0 0 480.161 480.161" style="enable-background:new 0 0 480.161 480.161;" xml:space="preserve">
<g>
	<g>
		<path d="M458,385.362c-2.869-7.385-8.619-13.285-15.928-16.344c-7.157-3.041-15.243-3.041-22.4,0L367.8,391.05
			c0.142-0.963,0.233-1.932,0.272-2.904c0-15.464-12.536-28-28-28h-16v-40h40c30.911-0.04,55.96-25.089,56-56c0-4.418-3.582-8-8-8
			h-48c-15.067-0.004-29.494,6.088-40,16.888v-33.296c66.127-4.418,116.151-61.606,111.733-127.733S374.199-4.147,308.072,0.272
			S191.921,61.878,196.339,128.005c4.007,59.97,51.763,107.726,111.733,111.733v49.296c-10.506-10.8-24.933-16.892-40-16.888h-48
			c-4.418,0-8,3.582-8,8c0.04,30.911,25.089,55.96,56,56h40v24h-30.056c-6.277-0.011-12.467-1.47-18.088-4.264
			c-25.961-12.944-54.567-19.699-83.576-19.736h-20.28c0-4.418-3.582-8-8-8h-64c-4.418,0-8,3.582-8,8h-56v16h56v80h-56v16h56
			c0,4.418,3.582,8,8,8h64c4.418,0,8-3.582,8-8v-3.048l59.728,24.8c32.563,13.287,68.961,13.687,101.808,1.12l123.584-47.112
			c7.319-2.783,13.208-8.398,16.336-15.576C460.771,401.049,460.941,392.769,458,385.362z M364.072,272.146h39.2
			c-3.825,18.613-20.198,31.979-39.2,32h-39.2C328.697,285.533,345.07,272.167,364.072,272.146z M268.072,320.146
			c-19.002-0.021-35.375-13.387-39.2-32h39.2c19.002,0.021,35.375,13.387,39.2,32H268.072z M140.072,440.146h-48v-96h48V440.146z
			 M212.072,120.146c0-57.438,46.562-104,104-104s104,46.562,104,104s-46.562,104-104,104
			C258.662,224.079,212.138,177.556,212.072,120.146z M442.896,401.866c-1.418,3.261-4.087,5.815-7.408,7.088l-123.584,47.12
			c-29.04,11.121-61.224,10.772-90.016-0.976l-65.816-27.336v-75.616h20.28c26.527,0.031,52.686,6.208,76.424,18.048
			c7.842,3.904,16.48,5.941,25.24,5.952h62.056c6.627,0.039,11.969,5.442,11.93,12.07c-0.032,5.554-3.872,10.361-9.282,11.618
			c-1.048,0.096-2.08,0.312-3.144,0.312h-95.504v16h95.504c0.168,0,0.328,0,0.496,0c0.16,0,0.312-0.048,0.48-0.048
			c6.348-0.105,12.617-1.43,18.464-3.904l66.888-28.4c3.186-1.36,6.79-1.36,9.976,0c3.311,1.407,5.91,4.097,7.2,7.456
			C444.442,394.67,444.376,398.494,442.896,401.866z"/>
	</g>
</g>
<g>
	<g>
		<rect x="108.072" y="408.146" width="16" height="16"/>
	</g>
</g>
<g>
	<g>
		<rect x="260.072" y="112.146" width="16" height="16"/>
	</g>
</g>
<g>
	<g>
		<rect x="356.072" y="112.146" width="16" height="16"/>
	</g>
</g>
<g>
	<g>
		<path d="M339.04,130.503c-1.844-5.929-6.032-10.847-11.592-13.613l-15.592-7.8c-3.376-1.686-4.745-5.789-3.059-9.165
			c1.156-2.314,3.52-3.777,6.107-3.779h2.336c3.77,0.009,6.823,3.062,6.832,6.832v1.168h16v-1.168
			c-0.037-9.94-6.511-18.71-16-21.672v-9.16h-16v9.16c-11.999,3.732-18.7,16.484-14.968,28.483
			c1.844,5.929,6.032,10.847,11.592,13.613l15.592,7.8c3.376,1.686,4.745,5.789,3.059,9.165c-1.156,2.314-3.52,3.777-6.107,3.779
			h-2.336c-3.77-0.009-6.823-3.062-6.832-6.832v-1.168h-16v1.168c0.037,9.94,6.511,18.71,16,21.672v9.16h16v-9.16
			C336.071,155.254,342.772,142.501,339.04,130.503z"/>
	</g>
</g>
<g>
	<g>
		<path d="M316.072,32.146c-48.601,0-88,39.399-88,88s39.399,88,88,88c48.577-0.057,87.943-39.423,88-88
			C404.072,71.545,364.673,32.146,316.072,32.146z M316.072,192.146c-39.746-0.044-71.956-32.254-72-72c0-39.765,32.236-72,72-72
			c39.765,0,72,32.235,72,72C388.072,159.91,355.837,192.146,316.072,192.146z"/>
	</g>
</g>
<g>
</g>
<g>
</g>
<g>
</g>
<g>
</g>
<g>
</g>
<g>
</g>
<g>
</g>
<g>
</g>
<g>
</g>
<g>
</g>
<g>
</g>
<g>
</g>
<g>
</g>
<g>
</g>
<g>
</g>
</svg>
