<?xml version="1.0" encoding="utf-8"?>
<!-- Generator: Adobe Illustrator 16.2.0, SVG Export Plug-In . SVG Version: 6.00 Build 0)  -->
<!DOCTYPE svg PUBLIC "-//W3C//DTD SVG 1.1//EN" "http://www.w3.org/Graphics/SVG/1.1/DTD/svg11.dtd">
<svg version="1.1" id="Слой_1" xmlns:svgjs="http://svgjs.com/svgjs"
	 xmlns="http://www.w3.org/2000/svg" xmlns:xlink="http://www.w3.org/1999/xlink" x="0px" y="0px" width="512px" height="512px"
	 viewBox="0 0 512 512" enable-background="new 0 0 512 512" xml:space="preserve">
<g>
	<circle fill="#E10018" cx="256" cy="256" r="169"/>
	<path fill="#FFFFFF" d="M221.28,308.144L308.191,256l-86.912-52.144V308.144z"/>
	<path fill="#FFFFFF" d="M256,0C114.624,0,0,114.608,0,256c0,141.392,114.624,256,256,256s256-114.624,256-256S397.376,0,256,0z
		 M395.008,267.216c0,24-2.783,48-2.783,48s-2.721,20.448-11.041,29.424c-10.576,11.809-22.416,11.872-27.855,12.576
		c-38.912,2.977-97.328,3.072-97.328,3.072s-72.288-0.704-94.528-2.977c-6.192-1.231-20.064-0.88-30.656-12.672
		c-8.336-8.991-11.04-29.424-11.04-29.424s-2.784-23.983-2.784-48V244.72c0-24,2.784-47.984,2.784-47.984s2.72-20.448,11.04-29.456
		c10.576-11.824,22.416-11.888,27.856-12.56c38.896-3.008,97.264-3.008,97.264-3.008h0.128c0,0,58.368,0,97.264,3.008
		c5.424,0.672,17.279,0.736,27.855,12.544c8.336,9.008,11.041,29.456,11.041,29.456s2.783,24,2.783,48V267.216z"/>
</g>
</svg>
