<svg width="27" height="28" viewBox="0 0 27 28" fill="none" xmlns="http://www.w3.org/2000/svg">
<path d="M25.2581 0.5H1.74194C0.779891 0.5 0 1.27989 0 2.24194V25.7581C0 26.7201 0.779891 27.5 1.74194 27.5H25.2581C26.2201 27.5 27 26.7201 27 25.7581V2.24194C27 1.27989 26.2201 0.5 25.2581 0.5Z" fill="#2AA1DA"/>
<path fill-rule="evenodd" clip-rule="evenodd" d="M17.4019 18.0065C17.386 18.1798 17.3184 18.3444 17.2081 18.479C17.0977 18.6136 16.9495 18.712 16.7827 18.7616C16.6158 18.8112 16.438 18.8097 16.272 18.7572C16.1061 18.7047 15.9596 18.6037 15.8515 18.4672C14.9022 17.7121 13.4216 16.626 13.4216 16.626C13.4216 16.626 12.3503 18.5125 12.1587 18.7058C12.0954 18.7591 12.0218 18.7986 11.9424 18.8218C11.863 18.845 11.7795 18.8513 11.6975 18.8404C11.6156 18.8295 11.5368 18.8016 11.4662 18.7585C11.3956 18.7154 11.3348 18.658 11.2877 18.59C11.2774 18.5614 11.2688 18.5324 11.2616 18.5029L11.8538 15.4963L16.139 11.2869L10.2948 14.6219C10.2948 14.6219 7.65575 13.8328 7.26382 13.6786C7.16271 13.6234 7.07933 13.5406 7.02332 13.44C6.96731 13.3393 6.94103 13.2248 6.94741 13.1098C6.95379 12.9948 6.99256 12.8839 7.05936 12.79C7.12617 12.6962 7.21825 12.6231 7.32484 12.5794C7.88226 12.2955 17.7154 8.53989 18.0464 8.44322C18.3774 8.34654 19.2484 8.09483 19.1525 8.94228C19.0567 9.78973 17.4977 17.5414 17.4019 18.0065Z" fill="white"/>
</svg>
