<svg width="27" height="28" viewBox="0 0 27 28" fill="none" xmlns="http://www.w3.org/2000/svg">
<path d="M25.2581 0.5H1.74194C0.779891 0.5 0 1.27989 0 2.24194V25.7581C0 26.7201 0.779891 27.5 1.74194 27.5H25.2581C26.2201 27.5 27 26.7201 27 25.7581V2.24194C27 1.27989 26.2201 0.5 25.2581 0.5Z" fill="#0077FF"/>
<path d="M14.5782 17.9194C10.2861 17.9194 7.58689 14.9769 7.48488 10.0807H9.63482C9.70545 13.6744 11.5415 15.1966 12.797 15.5104V10.0807H14.8214V13.1801C16.0612 13.0467 17.3637 11.6343 17.8031 10.0807H19.8276C19.4902 11.9952 18.0778 13.4076 17.0734 13.9883C18.0778 14.459 19.6863 15.6909 20.2983 17.9194H18.0699C17.5913 16.4285 16.3986 15.2751 14.8214 15.1182V17.9194H14.5782Z" fill="white"/>
</svg>
