<svg width="27" height="28" viewBox="0 0 27 28" fill="none" xmlns="http://www.w3.org/2000/svg">
<path d="M25.2581 0.5H1.74194C0.779891 0.5 0 1.27989 0 2.24194V25.7581C0 26.7201 0.779891 27.5 1.74194 27.5H25.2581C26.2201 27.5 27 26.7201 27 25.7581V2.24194C27 1.27989 26.2201 0.5 25.2581 0.5Z" fill="#E62117"/>
<path fill-rule="evenodd" clip-rule="evenodd" d="M16.5484 19.6613H10.4516C9.48957 19.6212 8.58268 19.2014 7.92964 18.4938C7.27661 17.7863 6.93069 16.8487 6.96772 15.8865V12.1126C6.93093 11.1506 7.27695 10.2133 7.92996 9.50589C8.58297 8.79852 9.48972 8.37881 10.4516 8.33871H16.5484C17.5103 8.37858 18.4172 8.79822 19.0703 9.50565C19.7233 10.2131 20.0693 11.1506 20.0322 12.1126V15.8865C20.0695 16.8487 19.7237 17.7865 19.0706 18.4941C18.4175 19.2017 17.5105 19.6214 16.5484 19.6613ZM18.2903 12.0447C18.317 11.5548 18.1488 11.0742 17.8224 10.7079C17.4961 10.3416 17.0381 10.1192 16.5484 10.0894H10.4516C9.96189 10.1192 9.50386 10.3416 9.17751 10.7079C8.85116 11.0742 8.68298 11.5548 8.70966 12.0447V15.9544C8.68298 16.4443 8.85116 16.9249 9.17751 17.2912C9.50386 17.6576 9.96189 17.8799 10.4516 17.9098H16.5484C17.0381 17.8799 17.4961 17.6576 17.8224 17.2912C18.1488 16.9249 18.317 16.4443 18.2903 15.9544V12.0447ZM12.1935 11.8113L15.6774 14L12.1935 16.187V11.8113Z" fill="white"/>
</svg>
