<?xml version="1.0" encoding="utf-8"?>
<!-- Generator: Adobe Illustrator 16.2.0, SVG Export Plug-In . SVG Version: 6.00 Build 0)  -->
<!DOCTYPE svg PUBLIC "-//W3C//DTD SVG 1.1//EN" "http://www.w3.org/Graphics/SVG/1.1/DTD/svg11.dtd">
<svg version="1.1" id="Слой_1" xmlns="http://www.w3.org/2000/svg" xmlns:xlink="http://www.w3.org/1999/xlink" x="0px" y="0px"
	 width="195px" height="69px" viewBox="11.006 3.865 195 69" enable-background="new 11.006 3.865 195 69" xml:space="preserve">
<g id="Логотип" transform="translate(-281.893 -287.234)">
	<g id="Сгруппировать_1">
		<path id="Контур_1" fill="#E50019" d="M406.083,318.76h18.816c2.213-12.848-6.408-25.058-19.258-27.271
			c-12.848-2.214-25.058,6.407-27.271,19.255c-2.213,12.849,6.407,25.061,19.256,27.273c10.969,1.892,21.768-4.139,25.916-14.469
			h-19.811L406.083,318.76z"/>
		<path id="Контур_2" fill="#1A1818" d="M469.262,292.928h5.635c-10.527,11.93-14.457,25.422-0.168,43.239h-6.033
			C456.551,318.86,460.073,305.224,469.262,292.928L469.262,292.928z"/>
		<path id="Контур_3" fill="#1A1818" d="M442.852,292.398l-10.232,26.764h-7.602l-1.713,3.786h7.754l-5.148,13.219h4.572
			l4.982-13.143h14.35l5.15,13.143h4.645L442.852,292.398L442.852,292.398z M442.727,304.751l5.293,14.276l-10.65,0L442.727,304.751
			z"/>
		<path id="Контур_4" fill="#1A1818" d="M356.305,292.928v16.8h-3.673l-1.959,5.064h5.632v21.376h5.055v-21.373h9.466v21.373
			h5.059v-43.24h-5.136v16.724h-9.389v-16.724H356.305L356.305,292.928z"/>
		<path id="Контур_5" fill="#1A1818" d="M330.415,292.928l8.485,21.373l-8.65,21.868h4.812l6.281-15.747l6.288,15.747h4.814
			l-8.65-21.946l8.401-21.294h-4.815l-6.035,15.092l-5.793-15.092L330.415,292.928z"/>
		<path id="Контур_6" fill="#1A1818" d="M326.637,293.007l-14.767-0.079v43.24h14.684v-5.06h-9.547v-16.073h7.342l2.205-5.055
			h-9.624v-11.999h7.748L326.637,293.007L326.637,293.007z"/>
		<path id="Контур_7" fill="#1A1818" d="M292.994,292.928v4.978h4.893v38.264h4.974v-38.186h4.005l1.958-5.056H292.994z"/>
		<path id="Контур_8" fill="#1A1818" d="M487.846,298.327c0.004,3.09-2.498,5.598-5.586,5.603
			c-3.092,0.003-5.6-2.498-5.604-5.586c-0.004-3.09,2.498-5.598,5.586-5.602c1.486-0.002,2.91,0.586,3.963,1.636
			C487.274,295.41,487.868,296.839,487.846,298.327z M487.225,298.327c0.004-2.747-2.221-4.974-4.965-4.977
			c-2.748-0.004-4.975,2.22-4.977,4.966c-0.004,2.745,2.219,4.975,4.965,4.978c1.318,0,2.584-0.522,3.518-1.454
			C486.717,300.921,487.245,299.649,487.225,298.327z M480.178,295.121h2.346c0.641-0.057,1.281,0.109,1.814,0.466
			c0.355,0.28,0.559,0.707,0.551,1.157c0.006,0.475-0.205,0.928-0.572,1.23c-0.357,0.267-0.777,0.432-1.219,0.477
			c0.182,0.077,0.354,0.178,0.51,0.299c0.17,0.176,0.326,0.368,0.463,0.57c0.174,0.233,0.336,0.476,0.484,0.726l0.609,1.096h-0.963
			l-0.582-1c-0.254-0.517-0.6-0.983-1.02-1.38c-0.354-0.181-0.75-0.26-1.146-0.229h-0.494v2.612h-0.785v-6.022L480.178,295.121z
			 M480.964,295.763v2.089h0.766c0.559,0.024,1.117-0.019,1.666-0.129c0.199-0.055,0.377-0.177,0.494-0.349
			c0.123-0.161,0.188-0.356,0.191-0.558c0.002-0.283-0.117-0.555-0.326-0.748c-0.502-0.273-1.076-0.38-1.641-0.308L480.964,295.763z
			"/>
	</g>
	<g id="Сгруппировать_2">
		<path id="Контур_9" fill="#1A1818" d="M296.639,341.391h1.051l-3.047,2.959l3.244,3.436h-1.124l-3.006-3.335v3.335h-0.858
			v-6.395h0.858v2.915L296.639,341.391z"/>
		<path id="Контур_10" fill="#1A1818" d="M301.317,341.199c1.426,0,3.053,0.783,3.053,3.395c0,3.343-2.659,3.39-3.053,3.39
			c-0.419,0-3.05-0.048-3.05-3.39C298.266,342.349,299.536,341.199,301.317,341.199z M301.317,347.258
			c0.449,0,2.14-0.094,2.14-2.669c0-1.509-0.669-2.668-2.14-2.668c-1.955,0-2.137,1.963-2.137,2.668
			C299.175,345.623,299.488,347.258,301.317,347.258z"/>
		<path id="Контур_11" fill="#1A1818" d="M306.416,347.787h-0.858v-6.396h0.858v2.67h3.22v-2.67h0.86v6.396h-0.86v-3.004
			h-3.22V347.787z"/>
		<path id="Контур_12" fill="#1A1818" d="M311.385,342.113v-0.722h5.019v0.722h-2.075v5.675h-0.859v-5.675H311.385z"/>
		<path id="Контур_13" fill="#1A1818" d="M319.902,341.391c1.307,0,2.167,0.512,2.167,1.837c0,1.197-0.593,2.011-2.248,2.011
			h-1.665v2.548h-0.858v-6.396H319.902z M318.16,344.517h1.573c1.015,0,1.461-0.43,1.461-1.271c0-0.782-0.475-1.132-1.461-1.132
			h-1.573V344.517z"/>
		<path id="Контур_14" fill="#1A1818" d="M325.823,341.199c1.426,0,3.053,0.783,3.053,3.395c0,3.343-2.661,3.39-3.053,3.39
			c-0.42,0-3.052-0.048-3.052-3.39C322.771,342.349,324.041,341.199,325.823,341.199z M325.823,347.258
			c0.448,0,2.138-0.094,2.138-2.669c0-1.509-0.668-2.668-2.138-2.668c-1.954,0-2.137,1.963-2.137,2.668
			C323.686,345.623,323.996,347.258,325.823,347.258z"/>
		<path id="Контур_15" fill="#1A1818" d="M329.405,347.039c0.832,0.155,1.509-0.484,1.509-2.897v-2.751h4.012v6.396h-0.859
			v-5.674h-2.294v2.212c0,2.959-1.086,3.673-2.367,3.462V347.039L329.405,347.039z"/>
		<path id="Контур_16" fill="#1A1818" d="M337.335,343.996h1.839c1.047-0.089,1.966,0.69,2.054,1.738
			c0.086,1.047-0.692,1.966-1.739,2.053c-0.104,0.011-0.209,0.011-0.314,0h-2.7v-6.396h0.859L337.335,343.996z M337.335,347.065
			h1.737c0.651,0.06,1.225-0.419,1.283-1.07c0.003-0.035,0.003-0.071,0.003-0.106c0-0.548-0.227-1.171-1.397-1.171h-1.627
			L337.335,347.065L337.335,347.065z"/>
		<path id="Контур_17" fill="#1A1818" d="M343.167,347.787h-0.859v-6.396h0.859v2.67h3.22v-2.67h0.859v6.396h-0.859v-3.004
			h-3.22V347.787z"/>
		<path id="Контур_18" fill="#1A1818" d="M351.481,341.199c1.425,0,3.052,0.783,3.052,3.395c0,3.343-2.659,3.39-3.052,3.39
			c-0.42,0-3.053-0.048-3.053-3.39C348.428,342.349,349.698,341.199,351.481,341.199z M351.481,347.258
			c0.448,0,2.138-0.094,2.138-2.669c0-1.509-0.667-2.668-2.138-2.668c-1.955,0-2.138,1.963-2.138,2.668
			C349.343,345.623,349.654,347.258,351.481,347.258z"/>
		<path id="Контур_19" fill="#1A1818" d="M355.666,344.955h2.412v0.777h-2.412V344.955z"/>
		<path id="Контур_20" fill="#1A1818" d="M363.844,341.391h0.86v6.396h-0.86v-5.177l-3.408,5.182h-0.858v-6.4h0.858v5.146
			L363.844,341.391z"/>
		<path id="Контур_21" fill="#1A1818" d="M366.748,345.823c0.046,0.631,0.357,1.436,1.819,1.436
			c1.26,0,1.599-0.703,1.599-1.27c0-0.54-0.228-1.205-1.461-1.205h-0.841v-0.723h0.76c0.292,0,1.288-0.028,1.288-1.018
			c0-1.104-1.207-1.122-1.471-1.122c-0.265,0-1.527,0.01-1.582,1.243h-0.858c0.119-1.863,1.764-1.966,2.503-1.966
			c1.38,0,2.285,0.577,2.285,1.79c0.037,0.672-0.428,1.268-1.088,1.394v0.019c0.823,0.11,1.415,0.846,1.344,1.673
			c0,0.849-0.475,1.908-2.42,1.908c-2.203,0-2.686-1.16-2.733-2.155L366.748,345.823z"/>
		<path id="Контур_22" fill="#1A1818" d="M373.209,342.416h-0.017l0.017,0.246v5.125h-0.858v-6.396h1.29l2.001,5.263
			l2.001-5.263h1.29v6.396h-0.86v-5.125l0.019-0.246h-0.028l-2.074,5.372h-0.696L373.209,342.416z"/>
		<path id="Контур_23" fill="#1A1818" d="M384.696,344.123v0.722h-3.353v2.222h3.802v0.722h-4.66v-6.396h4.559v0.722h-3.701
			v2.01L384.696,344.123L384.696,344.123z"/>
		<path id="Контур_24" fill="#1A1818" d="M388.68,341.391c1.306,0,2.165,0.512,2.165,1.837c0,1.197-0.595,2.011-2.248,2.011
			h-1.664v2.548h-0.857v-6.396H388.68z M386.933,344.517h1.568c1.015,0,1.462-0.43,1.462-1.271c0-0.782-0.474-1.132-1.462-1.132
			h-1.568V344.517z"/>
		<path id="Контур_25" fill="#1A1818" d="M396.18,341.391h0.861v6.396h-0.861v-5.177l-3.408,5.182h-0.857v-6.4h0.857v5.146
			L396.18,341.391z"/>
		<path id="Контур_26" fill="#1A1818" d="M397.936,342.113v-0.722h5.016v0.722h-2.074v5.675h-0.859v-5.675H397.936z"/>
		<path id="Контур_27" fill="#1A1818" d="M408.061,344.123v0.722h-3.355v2.222h3.801v0.722h-4.66v-6.396h4.561v0.722h-3.701
			v2.01L408.061,344.123L408.061,344.123z"/>
		<path id="Контур_28" fill="#1A1818" d="M408.782,347.039c0.832,0.155,1.508-0.484,1.508-2.897v-2.751h4.012v6.396h-0.861
			v-5.674h-2.293v2.212c0,2.959-1.088,3.673-2.365,3.462V347.039L408.782,347.039z"/>
		<path id="Контур_29" fill="#1A1818" d="M416.714,343.996h1.834c1.049-0.089,1.967,0.69,2.055,1.738
			c0.088,1.047-0.691,1.966-1.738,2.053c-0.105,0.011-0.211,0.011-0.316,0h-2.697v-6.396h0.857L416.714,343.996z M416.714,347.065
			h1.734c0.65,0.06,1.225-0.418,1.283-1.069c0.002-0.035,0.004-0.072,0.004-0.107c0-0.548-0.227-1.171-1.393-1.171h-1.625
			L416.714,347.065z"/>
		<path id="Контур_30" fill="#1A1818" d="M422.542,347.787h-0.857v-6.396h0.857v2.67h3.221v-2.67h0.859v6.396h-0.859v-3.004
			h-3.221V347.787z"/>
		<path id="Контур_31" fill="#1A1818" d="M429.028,343.996h1.846c1.047-0.089,1.965,0.69,2.053,1.738
			c0.086,1.047-0.691,1.966-1.74,2.053c-0.104,0.011-0.209,0.011-0.314,0h-2.697v-6.396h0.855L429.028,343.996z M429.028,347.065
			h1.729c0.635,0.078,1.213-0.373,1.289-1.01c0.008-0.057,0.01-0.112,0.008-0.168c0-1.198-1.086-1.171-1.754-1.171h-1.27v2.349
			H429.028z M434.458,341.391v6.396h-0.859v-6.396H434.458z"/>
		<path id="Контур_32" fill="#1A1818" d="M440.223,344.123v0.722h-3.354v2.222h3.801v0.722h-4.662v-6.396h4.559v0.722h-3.697
			v2.01L440.223,344.123L440.223,344.123z"/>
		<path id="Контур_33" fill="#1A1818" d="M444.591,347.787h-0.857v-6.396h4.934v6.396h-0.861v-5.675h-3.215V347.787z"/>
		<path id="Контур_34" fill="#1A1818" d="M452.823,341.391c1.305,0,2.166,0.512,2.166,1.837c0,1.197-0.592,2.011-2.248,2.011
			h-1.664v2.548h-0.859v-6.396H452.823z M451.083,344.517h1.572c1.014,0,1.463-0.43,1.463-1.271c0-0.782-0.477-1.132-1.463-1.132
			h-1.572V344.517z"/>
		<path id="Контур_35" fill="#1A1818" d="M460.325,341.391h0.861v6.396h-0.861v-5.177l-3.41,5.182h-0.857v-6.4h0.857v5.146
			L460.325,341.391z"/>
		<path id="Контур_36" fill="#1A1818" d="M463.596,344.032h1.965c1.002-0.168,1.949,0.51,2.115,1.512
			c0.021,0.13,0.029,0.26,0.023,0.39c0,0.849-0.402,1.854-2.129,1.854h-2.832v-6.396h4.543v0.722h-3.686V344.032L463.596,344.032z
			 M463.596,347.065h1.791c0.676,0,1.436-0.192,1.436-1.122c0-1.025-0.805-1.189-1.436-1.189h-1.791V347.065z"/>
		<path id="Контур_37" fill="#1A1818" d="M471.528,341.199c1.426,0,3.053,0.783,3.053,3.395c0,3.343-2.658,3.39-3.053,3.39
			c-0.42,0-3.053-0.048-3.053-3.39C468.475,342.349,469.745,341.199,471.528,341.199z M471.528,347.258
			c0.447,0,2.137-0.094,2.137-2.669c0-1.509-0.666-2.668-2.137-2.668c-1.955,0-2.139,1.963-2.139,2.668
			C469.389,345.623,469.7,347.258,471.528,347.258z"/>
		<path id="Контур_38" fill="#1A1818" d="M478.372,341.391c1.307,0,2.166,0.512,2.166,1.837c0,1.197-0.596,2.011-2.25,2.011
			h-1.664v2.548h-0.857v-6.396H478.372z M476.626,344.517h1.568c1.014,0,1.463-0.43,1.463-1.271c0-0.782-0.477-1.132-1.463-1.132
			h-1.568V344.517z"/>
		<path id="Контур_39" fill="#1A1818" d="M482.464,343.996h1.848c1.049-0.089,1.967,0.69,2.053,1.738
			c0.09,1.047-0.689,1.966-1.738,2.053c-0.104,0.011-0.209,0.011-0.316,0h-2.705v-6.396h0.859V343.996L482.464,343.996z
			 M482.464,347.065h1.729c0.635,0.078,1.215-0.374,1.291-1.01c0.006-0.057,0.01-0.112,0.008-0.168c0-1.198-1.09-1.171-1.754-1.171
			h-1.271v2.349H482.464z M487.891,341.391v6.396h-0.859v-6.396H487.891z"/>
		<path id="Контур_40" fill="#1A1818" d="M295.46,352.352c1.285,0,2.129,0.503,2.129,1.806c0,1.178-0.583,1.976-2.208,1.976
			h-1.635v2.507h-0.843v-6.288H295.46z M293.745,355.425h1.544c0.997,0,1.437-0.423,1.437-1.25c0-0.771-0.468-1.113-1.437-1.113
			h-1.544V355.425z"/>
		<path id="Контур_41" fill="#1A1818" d="M298.495,358.641h-0.907l2.381-6.288h0.897l2.38,6.288h-0.907l-0.592-1.629h-2.659
			L298.495,358.641z M301.513,356.305l-1.096-3.097l-1.095,3.097H301.513z"/>
		<path id="Контур_42" fill="#1A1818" d="M304.457,356.712c0.046,0.619,0.349,1.409,1.788,1.409
			c1.239,0,1.572-0.693,1.572-1.249c0-0.53-0.225-1.187-1.437-1.187h-0.825v-0.707h0.743c0.288,0,1.267-0.027,1.267-0.997
			c0-1.088-1.185-1.104-1.444-1.104c-0.261,0-1.499,0.008-1.556,1.216h-0.843c0.116-1.826,1.733-1.93,2.46-1.93
			c1.356,0,2.245,0.567,2.245,1.761c0.035,0.657-0.421,1.242-1.069,1.366v0.018c0.808,0.107,1.39,0.831,1.321,1.645
			c0,0.835-0.467,1.877-2.381,1.877c-2.164,0-2.64-1.142-2.683-2.119L304.457,356.712z"/>
		<path id="Контур_43" fill="#1A1818" d="M312.522,352.352c1.283,0,2.126,0.503,2.126,1.806c0,1.178-0.583,1.976-2.208,1.976
			h-1.635v2.507h-0.844v-6.288H312.522z M310.805,355.425h1.545c0.996,0,1.437-0.423,1.437-1.25c0-0.771-0.467-1.113-1.437-1.113
			h-1.545V355.425z"/>
		<path id="Контур_44" fill="#1A1818" d="M315.558,358.641h-0.909l2.381-6.288h0.899l2.379,6.288h-0.908l-0.593-1.629h-2.659
			L315.558,358.641z M318.574,356.305l-1.096-3.097l-1.096,3.097H318.574z"/>
		<path id="Контур_45" fill="#1A1818" d="M321.879,354.948h1.931c0.983-0.164,1.912,0.501,2.076,1.483
			c0.022,0.128,0.029,0.256,0.023,0.385c0,0.835-0.394,1.826-2.089,1.826h-2.785v-6.286h4.463v0.711h-3.619V354.948z
			 M321.879,357.931h1.755c0.665,0,1.411-0.189,1.411-1.105c0-1.007-0.79-1.17-1.411-1.17h-1.759L321.879,357.931z"/>
		<path id="Контур_46" fill="#1A1818" d="M329.673,352.163c1.4,0,2.999,0.773,2.999,3.333c0,3.286-2.611,3.333-2.999,3.333
			c-0.413,0-3.001-0.047-3.001-3.333C326.673,353.297,327.922,352.163,329.673,352.163z M329.673,358.118
			c0.44,0,2.102-0.087,2.102-2.622c0-1.479-0.657-2.623-2.102-2.623c-1.921,0-2.101,1.932-2.101,2.623
			C327.572,356.51,327.877,358.118,329.673,358.118z"/>
		<path id="Контур_47" fill="#1A1818" d="M333.194,353.061v-0.709h4.928v0.709h-2.041v5.579h-0.844v-5.579H333.194z"/>
		<path id="Контур_48" fill="#1A1818" d="M342.675,352.352h1.033l-2.992,2.909l3.188,3.379h-1.104l-2.96-3.281v3.281h-0.843
			v-6.288h0.843v2.866L342.675,352.352z"/>
		<path id="Контур_49" fill="#1A1818" d="M344.74,358.641h-0.911l2.379-6.288h0.898l2.38,6.288h-0.908l-0.592-1.629h-2.659
			L344.74,358.641z M347.757,356.305l-1.096-3.097l-1.095,3.097H347.757z"/>
		<path id="Контур_50" fill="#1A1818" d="M351.295,357.662v1.254c0.012,0.527-0.37,0.979-0.889,1.052v-0.493
			c0.267-0.049,0.458-0.286,0.449-0.559v-0.275h-0.449v-0.979H351.295L351.295,357.662z"/>
		<path id="Контур_51" fill="#1A1818" d="M355.945,358.641h-0.843v-6.288h4.849v6.288h-0.845v-5.579h-3.161V358.641z"/>
		<path id="Контур_52" fill="#1A1818" d="M364.036,352.352c1.285,0,2.129,0.503,2.129,1.806c0,1.178-0.583,1.976-2.208,1.976
			h-1.634v2.507h-0.843v-6.288H364.036z M362.322,355.425h1.545c0.995,0,1.435-0.423,1.435-1.25c0-0.771-0.467-1.113-1.435-1.113
			h-1.545V355.425z"/>
		<path id="Контур_53" fill="#1A1818" d="M369.854,352.163c1.402,0,3,0.773,3,3.333c0,3.286-2.611,3.333-3,3.333
			c-0.412,0-2.999-0.047-2.999-3.333C366.857,353.297,368.105,352.163,369.854,352.163z M369.854,358.118
			c0.441,0,2.103-0.087,2.103-2.622c0-1.479-0.657-2.623-2.103-2.623c-1.921,0-2.1,1.932-2.1,2.623
			C367.756,356.51,368.06,358.118,369.854,358.118z"/>
		<path id="Контур_54" fill="#1A1818" d="M378.216,352.352h0.844v6.288h-0.844v-5.093l-3.349,5.093h-0.843v-6.288h0.843v5.054
			L378.216,352.352z"/>
		<path id="Контур_55" fill="#1A1818" d="M381.071,356.712c0.044,0.619,0.348,1.409,1.788,1.409
			c1.239,0,1.572-0.693,1.572-1.249c0-0.53-0.225-1.187-1.437-1.187h-0.826v-0.707h0.747c0.288,0,1.266-0.027,1.266-0.997
			c0-1.088-1.186-1.104-1.446-1.104c-0.261,0-1.5,0.008-1.554,1.216h-0.844c0.116-1.826,1.733-1.93,2.46-1.93
			c1.357,0,2.245,0.567,2.245,1.761c0.035,0.657-0.42,1.242-1.068,1.366v0.018c0.808,0.107,1.388,0.832,1.32,1.645
			c0,0.835-0.467,1.877-2.379,1.877c-2.166,0-2.64-1.142-2.685-2.119L381.071,356.712z"/>
		<path id="Контур_56" fill="#1A1818" d="M389.332,352.352c1.527,0,1.877,0.861,1.877,1.599
			c0.016,0.643-0.425,1.207-1.051,1.349v0.025c0.788,0.086,1.368,0.774,1.321,1.564c0,0.909-0.459,1.752-2.247,1.752h-2.657v-6.287
			L389.332,352.352z M387.417,355.02h1.699c0.923,0,1.231-0.458,1.231-0.98c0-0.357-0.144-0.979-1.206-0.979h-1.725V355.02z
			 M387.417,357.931h1.752c0.583,0,1.445-0.088,1.445-1.114c0-0.807-0.565-1.087-1.445-1.087h-1.752V357.931z"/>
		<path id="Контур_57" fill="#1A1818" d="M395.401,352.163c1.402,0,3.002,0.773,3.002,3.333c0,3.286-2.611,3.333-3.002,3.333
			c-0.412,0-3-0.047-3-3.333C392.397,353.297,393.653,352.163,395.401,352.163z M395.401,358.118c0.439,0,2.102-0.087,2.102-2.622
			c0-1.479-0.654-2.623-2.102-2.623c-1.922,0-2.102,1.932-2.102,2.623C393.299,356.51,393.606,358.118,395.401,358.118z"/>
		<path id="Контур_58" fill="#1A1818" d="M405.315,357.931l-0.08,2.127h-0.736v-1.417h-4.887v1.417h-0.736l-0.07-2.127h0.566
			c0.582-0.719,1.193-1.938,1.193-4.285v-1.293h3.844v5.578H405.315z M401.411,353.061v0.785c0.098,1.436-0.264,2.866-1.033,4.084
			h3.188v-4.869H401.411L401.411,353.061z"/>
		<path id="Контур_59" fill="#1A1818" d="M411.483,356.556c-0.076,1.337-1.225,2.358-2.561,2.279
			c-0.033-0.002-0.064-0.004-0.098-0.006c-1.865,0-2.988-1.215-2.988-3.222c0-3.341,2.438-3.44,2.961-3.44
			c2.002,0,2.506,1.178,2.604,2.129h-0.844c-0.066-0.854-0.811-1.494-1.666-1.429c-0.031,0.002-0.063,0.006-0.094,0.01
			c-1.566,0-2.066,1.321-2.066,2.698c0,1.466,0.799,2.55,2.129,2.55c0.924,0.059,1.719-0.642,1.777-1.563c0-0.001,0-0.002,0-0.002
			L411.483,356.556z"/>
		<path id="Контур_60" fill="#1A1818" d="M411.942,353.061v-0.709h4.93v0.709h-2.039v5.579h-0.842v-5.579H411.942z"/>
		<path id="Контур_61" fill="#1A1818" d="M420.508,352.352c1.527,0,1.879,0.861,1.879,1.599
			c0.016,0.643-0.426,1.207-1.053,1.349v0.025c0.789,0.086,1.369,0.774,1.32,1.564c0,0.909-0.457,1.752-2.244,1.752h-2.658v-6.287
			L420.508,352.352z M418.594,355.02h1.699c0.924,0,1.229-0.458,1.229-0.98c0-0.357-0.145-0.979-1.203-0.979h-1.721L418.594,355.02z
			 M418.594,357.931h1.752c0.582,0,1.445-0.088,1.445-1.114c0-0.807-0.566-1.087-1.445-1.087h-1.748L418.594,357.931z"/>
		<path id="Контур_62" fill="#1A1818" d="M426.579,352.163c1.4,0,3,0.773,3,3.333c0,3.286-2.611,3.333-3,3.333
			c-0.412,0-3-0.047-3-3.333C423.579,353.297,424.829,352.163,426.579,352.163z M426.579,358.118c0.439,0,2.104-0.087,2.104-2.622
			c0-1.479-0.656-2.623-2.104-2.623c-1.922,0-2.1,1.932-2.1,2.623C424.479,356.51,424.778,358.118,426.579,358.118z"/>
		<path id="Контур_63" fill="#1A1818" d="M437.032,352.352h0.844v6.288h-0.844v-5.093l-3.35,5.093h-0.844v-6.288h0.844v5.054
			L437.032,352.352z"/>
		<path id="Контур_64" fill="#1A1818" d="M442.339,358.641h-0.844v-6.288h4.85v6.288h-0.85v-5.579h-3.16L442.339,358.641z"/>
		<path id="Контур_65" fill="#1A1818" d="M450.508,352.163c1.402,0,3,0.773,3,3.333c0,3.286-2.611,3.333-3,3.333
			c-0.412,0-2.998-0.047-2.998-3.333C447.51,353.297,448.758,352.163,450.508,352.163z M450.508,358.118
			c0.441,0,2.104-0.087,2.104-2.622c0-1.479-0.656-2.623-2.104-2.623c-1.922,0-2.102,1.932-2.102,2.623
			C448.407,356.51,448.716,358.118,450.508,358.118z"/>
		<path id="Контур_66" fill="#1A1818" d="M459.966,356.556c-0.08,1.338-1.227,2.358-2.564,2.279
			c-0.031-0.002-0.063-0.005-0.094-0.006c-1.871,0-2.99-1.215-2.99-3.222c0-3.341,2.438-3.44,2.959-3.44
			c2.002,0,2.506,1.178,2.604,2.129h-0.842c-0.066-0.854-0.814-1.495-1.668-1.429c-0.031,0.002-0.063,0.006-0.094,0.01
			c-1.57,0-2.064,1.321-2.064,2.698c0,1.466,0.799,2.55,2.129,2.55c0.922,0.059,1.719-0.642,1.777-1.563c0-0.001,0-0.002,0-0.002
			L459.966,356.556z"/>
		<path id="Контур_67" fill="#1A1818" d="M460.423,353.061v-0.709h4.93v0.709h-2.039v5.579h-0.844v-5.579H460.423z"/>
		<path id="Контур_68" fill="#1A1818" d="M465.749,358.641h-0.908l2.379-6.288h0.896l2.381,6.288h-0.906l-0.594-1.629h-2.658
			L465.749,358.641z M468.766,356.305l-1.098-3.097l-1.096,3.097H468.766z"/>
		<path id="Контур_69" fill="#1A1818" d="M473.983,352.352c1.527,0,1.875,0.861,1.875,1.599
			c0.018,0.644-0.424,1.207-1.051,1.349v0.025c0.789,0.086,1.369,0.774,1.322,1.564c0,0.909-0.461,1.752-2.246,1.752h-2.658v-6.287
			L473.983,352.352z M472.067,355.02h1.699c0.924,0,1.23-0.458,1.23-0.98c0-0.357-0.145-0.979-1.203-0.979h-1.727V355.02z
			 M472.067,357.931h1.752c0.584,0,1.445-0.088,1.445-1.114c0-0.807-0.566-1.087-1.445-1.087h-1.752V357.931z"/>
		<path id="Контур_70" fill="#1A1818" d="M481.085,352.352h1.033l-2.99,2.909l3.188,3.379h-1.104l-2.955-3.281v3.281h-0.846
			v-6.288h0.846v2.866L481.085,352.352z"/>
		<path id="Контур_71" fill="#1A1818" d="M483.151,358.641h-0.91l2.381-6.288h0.898l2.379,6.288h-0.906l-0.592-1.629h-2.656
			L483.151,358.641z M486.169,356.305l-1.098-3.097l-1.094,3.097H486.169z"/>
	</g>
</g>
</svg>
