<svg width="31" height="30" viewBox="0 0 31 30" fill="none" xmlns="http://www.w3.org/2000/svg">
<circle cx="15.0449" cy="15" r="15" fill="#DC0017"/>
<path d="M21.2406 21.6667C13.6865 21.6767 7.95347 16.2163 7.96156 9.16877C7.96156 8.70853 8.35797 8.33334 8.84697 8.33334H11.1839C11.6227 8.33334 11.9954 8.63678 12.0599 9.04528C12.2143 10.0243 12.5172 10.9775 12.9593 11.8756L13.0503 12.0604C13.1768 12.3174 13.091 12.6228 12.8461 12.7874C12.1224 13.2738 11.8458 14.253 12.4096 15.017C13.1171 15.9757 14.009 16.8149 15.0274 17.4805C15.8391 18.011 16.8793 17.7507 17.3961 17.0697C17.5711 16.8391 17.8958 16.7583 18.169 16.8775L18.3645 16.9627C19.3188 17.3788 20.3316 17.6638 21.3719 17.8091C21.806 17.8698 22.1282 18.2206 22.1282 18.6336V20.8333C22.1282 21.2936 21.7308 21.6667 21.2418 21.6667L21.2406 21.6667Z" fill="white"/>
</svg>
